<svg width="17" height="15" viewBox="0 0 17 15" fill="none" xmlns="http://www.w3.org/2000/svg">
<path d="M8.12741 0.681559C8.20511 0.457383 8.52215 0.457382 8.59984 0.681558L10.2648 5.48537C10.2996 5.58601 10.3945 5.6535 10.501 5.6535H15.8526C16.0987 5.6535 16.1967 5.9716 15.9934 6.11012L11.6921 9.03984C11.5988 9.10341 11.5597 9.22164 11.5967 9.32833L13.246 14.0873C13.3249 14.3148 13.0681 14.5114 12.8691 14.3758L8.50436 11.4029C8.41945 11.345 8.3078 11.345 8.22289 11.4029L3.85818 14.3758C3.65917 14.5114 3.40238 14.3148 3.48123 14.0873L5.1306 9.32833C5.16758 9.22164 5.12845 9.10341 5.03513 9.03984L0.733882 6.11012C0.530508 5.9716 0.628551 5.6535 0.874619 5.6535H6.22629C6.3328 5.6535 6.42762 5.58601 6.4625 5.48537L8.12741 0.681559Z" fill="#FBB040"/>
</svg>
